<svg width="27" height="27" viewBox="0 0 27 27" fill="none" xmlns="http://www.w3.org/2000/svg">
<path d="M11.25 3.375H4.5C4.20163 3.375 3.91548 3.49353 3.7045 3.7045C3.49353 3.91548 3.375 4.20163 3.375 4.5V11.25C3.375 11.5484 3.49353 11.8345 3.7045 12.0455C3.91548 12.2565 4.20163 12.375 4.5 12.375H11.25C11.5484 12.375 11.8345 12.2565 12.0455 12.0455C12.2565 11.8345 12.375 11.5484 12.375 11.25V4.5C12.375 4.20163 12.2565 3.91548 12.0455 3.7045C11.8345 3.49353 11.5484 3.375 11.25 3.375ZM10.125 10.125H5.625V5.625H10.125V10.125ZM22.5 3.375H15.75C15.4516 3.375 15.1655 3.49353 14.9545 3.7045C14.7435 3.91548 14.625 4.20163 14.625 4.5V11.25C14.625 11.5484 14.7435 11.8345 14.9545 12.0455C15.1655 12.2565 15.4516 12.375 15.75 12.375H22.5C22.7984 12.375 23.0845 12.2565 23.2955 12.0455C23.5065 11.8345 23.625 11.5484 23.625 11.25V4.5C23.625 4.20163 23.5065 3.91548 23.2955 3.7045C23.0845 3.49353 22.7984 3.375 22.5 3.375ZM21.375 10.125H16.875V5.625H21.375V10.125ZM11.25 14.625H4.5C4.20163 14.625 3.91548 14.7435 3.7045 14.9545C3.49353 15.1655 3.375 15.4516 3.375 15.75V22.5C3.375 22.7984 3.49353 23.0845 3.7045 23.2955C3.91548 23.5065 4.20163 23.625 4.5 23.625H11.25C11.5484 23.625 11.8345 23.5065 12.0455 23.2955C12.2565 23.0845 12.375 22.7984 12.375 22.5V15.75C12.375 15.4516 12.2565 15.1655 12.0455 14.9545C11.8345 14.7435 11.5484 14.625 11.25 14.625ZM10.125 21.375H5.625V16.875H10.125V21.375ZM19.125 14.625C16.6432 14.625 14.625 16.6432 14.625 19.125C14.625 21.6068 16.6432 23.625 19.125 23.625C21.6068 23.625 23.625 21.6068 23.625 19.125C23.625 16.6432 21.6068 14.625 19.125 14.625ZM19.125 21.375C17.8841 21.375 16.875 20.3659 16.875 19.125C16.875 17.8841 17.8841 16.875 19.125 16.875C20.3659 16.875 21.375 17.8841 21.375 19.125C21.375 20.3659 20.3659 21.375 19.125 21.375Z" fill="black"/>
</svg>
