<svg width="32" height="32" viewBox="0 0 32 32" fill="none" xmlns="http://www.w3.org/2000/svg">
<g clip-path="url(#clip0_1_4647)">
<path d="M16 0C7.162 0 0 7.162 0 16C0 24.838 7.162 32 16 32C24.838 32 32 24.838 32 16C32 7.162 24.838 0 16 0ZM12 24C7.576 24 4 20.426 4 16C4 11.574 7.576 8 12 8C14.162 8 15.968 8.788 17.362 10.094L15.186 12.182C14.592 11.614 13.554 10.95 11.998 10.95C9.266 10.95 7.036 13.212 7.036 16C7.036 18.788 9.268 21.05 11.998 21.05C15.166 21.05 16.354 18.776 16.536 17.6H11.998V14.856H19.554C19.622 15.256 19.68 15.656 19.68 16.182C19.68 20.756 16.618 24 11.998 24H12ZM26 16V18H24V16H22V14H24V12H26V14H28V16H26Z" fill="#E92C3B"/>
</g>
<defs>
<clipPath id="clip0_1_4647">
<rect width="32" height="32" fill="white"/>
</clipPath>
</defs>
</svg>
