<svg width="60" height="60" viewBox="0 0 60 60" fill="none" xmlns="http://www.w3.org/2000/svg">
<path d="M12.9062 35.7241C12.9883 31.3352 14.1016 27.0273 16.1563 23.1482C16.5438 29.2357 19.4146 31.6874 20.8404 31.6874C21.9054 31.6874 22.8846 30.6024 22.8846 28.8324C22.9587 26.5474 23.3071 22.6349 26.3637 16.9782C26.6236 17.1304 26.9185 17.2128 27.2196 17.2174C28.4163 17.2174 30.3446 15.9216 28.7621 6.21655C28.7621 6.21655 40.5204 14.1407 40.0771 27.2616C40.0641 27.4909 40.1004 27.7203 40.1835 27.9345C40.2665 28.1486 40.3944 28.3425 40.5586 28.5031C40.7228 28.6638 40.9194 28.7874 41.1353 28.8658C41.3513 28.9441 41.5814 28.9753 41.8104 28.9574C42.503 28.8835 43.167 28.6419 43.7451 28.2535C44.3232 27.865 44.7978 27.3415 45.1279 26.7282C46.3748 29.2356 46.9931 32.0086 46.9296 34.8082C46.9296 44.8541 40.6946 52.7141 30.0496 52.7141C20.5679 52.7141 12.9062 44.7266 12.9062 35.9991" fill="#BC4B44"/>
<path d="M31.0454 22.4234C30.7254 23.6517 29.6604 25.6992 26.5729 29.2209C26.4662 29.3034 26.4662 29.385 26.3604 29.4667C26.0404 30.04 24.6387 31.0925 24.6387 33.415C24.6749 34.0715 24.8632 34.7105 25.1887 35.2817C24.5211 35.9879 23.6215 36.4298 22.6545 36.5267C22.0329 36.5267 20.7295 35.9342 20.6295 35.0092C20.1819 35.3825 19.8226 35.8504 19.5774 36.3792C19.3323 36.9081 19.2075 37.4847 19.212 38.0675C19.212 41.7242 20.9295 45.52 25.8279 48.4684C25.8279 48.4684 27.2112 49.3692 27.3187 50.1067C27.3187 50.1067 27.3187 50.1884 27.4245 50.1884H33.0679C33.2812 50.1884 33.2812 50.1884 33.2812 50.1067C33.2812 49.9425 33.7062 49.0417 36.6879 46.9942C38.3467 45.9032 39.7022 44.4098 40.6279 42.6534C40.6703 42.5466 40.6866 42.4312 40.6752 42.3169C40.6639 42.2026 40.6253 42.0927 40.5627 41.9963C40.5001 41.9 40.4153 41.8201 40.3154 41.7633C40.2155 41.7065 40.1035 41.6746 39.9887 41.67C39.7492 41.5961 39.5294 41.4694 39.3452 41.2994C39.1611 41.1294 39.0173 40.9203 38.9245 40.6875C38.9245 40.6875 38.7112 40.0325 39.5637 38.5584C39.97 37.9779 40.2118 37.2984 40.2637 36.5917C40.2168 36.4584 40.1424 36.3365 40.0453 36.234C39.9481 36.1314 39.8304 36.0505 39.6999 35.9964C39.5694 35.9424 39.4289 35.9165 39.2877 35.9205C39.1465 35.9244 39.0077 35.958 38.8804 36.0192C38.3509 36.2684 37.7483 36.3143 37.1872 36.1482C36.6261 35.9821 36.1456 35.6156 35.837 35.1184C35.837 35.1184 35.0912 33.8075 35.7304 30.6134C36.1562 28.1567 34.6654 24.1434 32.7487 22.0959C32.2162 21.6042 31.1512 21.7675 31.0454 22.4234Z" fill="#F1B31C" fill-opacity="0.66"/>
<path d="M32.7514 46.5675L39.2139 47.0159L34.5839 39.6692L37.5106 39.7975L33.5139 33.7509L36.0306 33.61L30.3306 25.8083L24.8548 33.7892L27.4223 33.4759L22.9714 39.7975L26.0773 39.6692L21.4473 47.0159L27.2248 46.3375" fill="#3F3F3F"/>
<path d="M33.0264 46.5673L39.2139 47.0156L34.5839 39.6689L37.5106 39.7973L33.5139 33.7506L36.0306 33.6098L30.3306 25.8081L24.8548 33.7889L27.4223 33.4756L22.9714 39.7973L26.0773 39.6689L21.4473 47.0156L26.9498 46.3373" stroke="black" stroke-width="2" stroke-linecap="round" stroke-linejoin="round"/>
<path d="M30.3301 47.6882V52.6832" stroke="black" stroke-width="2" stroke-miterlimit="10" stroke-linecap="round"/>
<path d="M16.9572 46.5732C14.3661 43.5496 12.9311 39.7051 12.9072 35.7232C12.9892 31.3348 14.1022 27.0271 16.1564 23.1482C16.5439 29.2357 19.4147 31.6874 20.8406 31.6874C21.9056 31.6874 22.8847 30.6024 22.8847 28.8324C22.9589 26.5474 23.0322 22.9099 26.0889 17.2532M39.0589 50.3632C36.3288 51.9601 33.2112 52.7733 30.0489 52.7132C27.0221 52.7128 24.0509 51.8998 21.4456 50.3591M29.0372 6.21655C29.0372 6.21655 40.5206 14.1416 40.0772 27.2616C40.0643 27.4909 40.1005 27.7203 40.1836 27.9345C40.2666 28.1486 40.3946 28.3425 40.5587 28.5031C40.7229 28.6638 40.9196 28.7874 41.1355 28.8658C41.3514 28.9441 41.5816 28.9753 41.8106 28.9574C42.503 28.8836 43.167 28.6421 43.7451 28.2538C44.3232 27.8656 44.7979 27.3422 45.1281 26.7291C46.3748 29.2362 46.9931 32.0089 46.9297 34.8082C47.0115 38.7301 45.912 42.586 43.7739 45.8749" stroke="black" stroke-width="2" stroke-linecap="round" stroke-linejoin="round"/>
</svg>
