<svg width="26" height="26" viewBox="0 0 26 26" fill="none" xmlns="http://www.w3.org/2000/svg">
<g clip-path="url(#clip0_6_1609)">
<path d="M15.1663 6.90617C16.7372 6.90617 18.0101 8.17909 18.0101 9.74992C18.0101 11.3208 16.7372 12.5937 15.1663 12.5937C13.5955 12.5937 12.3226 11.3208 12.3226 9.74992C12.3226 8.17909 13.5955 6.90617 15.1663 6.90617ZM15.1663 19.0937C19.1882 19.0937 23.4268 21.0708 23.4268 21.9374V23.427H6.90592V21.9374C6.90592 21.0708 11.1445 19.0937 15.1663 19.0937ZM15.1663 4.33325C12.1736 4.33325 9.74967 6.75721 9.74967 9.74992C9.74967 12.7426 12.1736 15.1666 15.1663 15.1666C18.159 15.1666 20.583 12.7426 20.583 9.74992C20.583 6.75721 18.159 4.33325 15.1663 4.33325ZM15.1663 16.5208C11.5507 16.5208 4.33301 18.3353 4.33301 21.9374V25.9999H25.9997V21.9374C25.9997 18.3353 18.782 16.5208 15.1663 16.5208Z" fill="black"/>
</g>
<defs>
<clipPath id="clip0_6_1609">
<rect width="26" height="26" fill="white"/>
</clipPath>
</defs>
</svg>
