<svg width="19" height="19" viewBox="0 0 19 19" fill="none" xmlns="http://www.w3.org/2000/svg">
<path d="M8.27106 4.60484L5.39552 1.2856C5.06403 0.903106 4.45628 0.904806 4.07123 1.2907L1.70654 3.65964C1.00275 4.36429 0.801298 5.41063 1.20845 6.24958C3.64081 11.2858 7.70245 15.3531 12.7352 17.7925C13.5733 18.1997 14.6188 17.9982 15.3226 17.2936L17.7094 14.9025C18.0962 14.5158 18.097 13.9046 17.7111 13.5731L14.3791 10.7129C14.0306 10.4137 13.4892 10.4528 13.1398 10.803L11.9804 11.9641C11.9211 12.0263 11.843 12.0673 11.758 12.0808C11.6731 12.0943 11.5861 12.0796 11.5104 12.0389C9.61528 10.9476 8.04325 9.37351 6.95442 7.47697C6.91364 7.40111 6.89887 7.31396 6.91238 7.2289C6.9259 7.14384 6.96694 7.06556 7.02921 7.00607L8.18521 5.84923C8.53541 5.49733 8.57366 4.95333 8.27106 4.60399V4.60484Z" stroke="#BC4B44" stroke-width="2" stroke-linecap="round" stroke-linejoin="round"/>
</svg>
