<svg width="22" height="29" viewBox="0 0 22 29" fill="none" xmlns="http://www.w3.org/2000/svg">
<path d="M21 12.0455C21 20.6364 11 28 11 28C11 28 1 20.6364 1 12.0455C1 9.11602 2.05357 6.30656 3.92893 4.23514C5.8043 2.16371 8.34784 1 11 1C13.6522 1 16.1957 2.16371 18.0711 4.23514C19.9464 6.30656 21 9.11602 21 12.0455Z" fill="#BC4B44" fill-opacity="0.73" stroke="#BC4B44" stroke-opacity="0.73" stroke-width="2" stroke-linecap="round" stroke-linejoin="round"/>
<path d="M11.0003 15.0867C12.8413 15.0867 14.3337 13.51 14.3337 11.565C14.3337 9.61995 12.8413 8.04321 11.0003 8.04321C9.15938 8.04321 7.66699 9.61995 7.66699 11.565C7.66699 13.51 9.15938 15.0867 11.0003 15.0867Z" fill="white" stroke="white" stroke-width="2" stroke-linecap="round" stroke-linejoin="round"/>
</svg>
